<?xml version="1.0" encoding="UTF-8"?> <svg xmlns="http://www.w3.org/2000/svg" xmlns:xlink="http://www.w3.org/1999/xlink" version="1.1" id="Capa_1" x="0px" y="0px" viewBox="0 0 706.2 168.3" style="enable-background:new 0 0 706.2 168.3;" xml:space="preserve"> <style type="text/css"> .st0{fill:#EAEAEA;} .st1{fill:#07144B;} .st2{fill:url(#SVGID_1_);} </style> <g> <g> <path class="st0" d="M3.1,66.7C3.1,47.1,15.3,33,33.6,33c15,0,26.4,9.5,28.7,23.6h-8.1c-2.3-9.9-10.6-16.5-20.7-16.5 C20,40.2,11,51.4,11,66.7c0,15.4,9,26.5,22.4,26.5c10.1,0,18.4-6.6,20.7-16.5h8.1c-2.2,14.2-13.6,23.5-28.7,23.5 C15.3,100.3,3.1,86.3,3.1,66.7z"></path> <path class="st0" d="M77,61.7h-8.2v-6.1h15.1v43.6H77V61.7z M73.2,40.4c0-2.8,2.4-5.3,5.3-5.3c2.9,0,5.3,2.5,5.3,5.3 c0,2.9-2.4,5.3-5.3,5.3C75.6,45.7,73.2,43.3,73.2,40.4z"></path> <path class="st0" d="M133,77.3c0,13.7-7.8,22.9-18.8,22.9c-6.8,0-11.9-3.4-14.4-8.6h-1.1v7.5h-6.7v-64h7v27.3h1.1 c2.6-4.9,7.6-8,14.1-8C125.3,54.4,133,63.7,133,77.3z M125.9,77.3c0-9.8-5.4-16.4-13.4-16.4c-8,0-13.3,6.6-13.3,16.4 c0,9.9,5.3,16.5,13.3,16.5C120.5,93.8,125.9,87.2,125.9,77.3z"></path> <path class="st0" d="M179.5,79.5h-35.3c0.8,9.1,6.6,14.8,14.9,14.8c6.1,0,11-3.1,13-7.8h6.7c-2.3,8.1-10,13.8-20,13.8 c-12.6,0-21.3-9.1-21.3-22.9c0-13.7,8.4-22.9,21-22.9c12.6,0,21.1,9.2,21.1,22.9V79.5z M144.2,74.9h28.5 c-0.9-9-6.1-14.5-14.2-14.5C150.4,60.4,145,66,144.2,74.9z"></path> <path class="st0" d="M206.8,55.6v7.2h-5.1c-6.3,0-9,4-9,12.3v24h-7V55.6h6.7v6.3h1c1.4-3.9,4.9-6.3,9.7-6.3H206.8z"></path> <path class="st0" d="M298.2,79.5h-35.3c0.8,9.1,6.6,14.8,14.9,14.8c6.1,0,11-3.1,13-7.8h6.7c-2.3,8.1-10,13.8-20,13.8 c-12.6,0-21.3-9.1-21.3-22.9c0-13.7,8.4-22.9,21-22.9c12.6,0,21.1,9.2,21.1,22.9V79.5z M262.9,74.9h28.5 c-0.9-9-6.1-14.5-14.2-14.5C269.2,60.4,263.8,66,262.9,74.9z"></path> <path class="st0" d="M302.7,85.5h6.9c1,5.4,5.8,8.9,12.4,8.9c6.1,0,10.1-2.9,10.1-7.4c0-3.7-2.5-5.7-7.8-6.4l-7.4-1 c-8.9-1.2-13-5.2-13-11.7c0-8.1,6.4-13.5,15.9-13.5c9.6,0,16.5,5.4,17.7,13.5h-6.7c-0.9-4.7-5-7.7-10.9-7.7 c-5.6,0-9.2,2.7-9.2,7.1c0,3.7,2.7,5.6,7.7,6.3l7.3,1c9.1,1.2,13.2,5.2,13.2,11.8c0,8.4-6.8,13.9-17,13.9 C311.5,100.3,303.9,94.4,302.7,85.5z"></path> <path class="st0" d="M355.7,61.7v29.2c0,1.4,0.7,2,2,2h8v6.2h-9.6c-5.1,0-7.5-2.4-7.5-7.5V61.7H340v-6.1h8.8V44.5h6.9v11.1h10.1 v6.1H355.7z"></path> <path class="st0" d="M380.1,61.7h-8.2v-6.1H387v43.6h-6.9V61.7z M376.4,40.4c0-2.8,2.4-5.3,5.3-5.3c2.9,0,5.3,2.5,5.3,5.3 c0,2.9-2.4,5.3-5.3,5.3C378.7,45.7,376.4,43.3,376.4,40.4z"></path> <path class="st0" d="M393.4,77.3c0-13.7,8.5-22.9,21.3-22.9c12.7,0,21.2,9.2,21.2,22.9c0,13.8-8.5,22.9-21.2,22.9 C401.9,100.3,393.4,91.1,393.4,77.3z M428.8,77.3c0-9.8-5.6-16.4-14.1-16.4c-8.5,0-14.2,6.6-14.2,16.4c0,9.9,5.6,16.5,14.2,16.5 C423.1,93.8,428.8,87.2,428.8,77.3z M404.7,42.4l18.5-8l2.4,6.7l-19.4,5.4L404.7,42.4z"></path> <path class="st0" d="M479.1,70.6v28.6h-7V73.7c0-7.5-4.2-12.5-10.6-12.5c-7.2,0-12.1,6.7-12.1,16.6v21.3h-7V55.6h6.7v7.3h1 c2.7-5.2,7.8-8.5,13.8-8.5C472.7,54.4,479.1,60.9,479.1,70.6z"></path> <g> <path class="st0" d="M243.4,55.6v6.6h-0.9c-2.5-4.8-7.8-7.8-14.4-7.8c-11.3,0-18.8,8.5-18.8,21.3s7.6,21.2,18.8,21.2 c6.4,0,11.6-2.8,14.1-7.3h1v5.5c0,0.4,0,0.9,0,1.3l7-1.7v-39H243.4z M229.7,90.9c-7.9,0-13.3-6-13.3-15.2 c0-9.1,5.4-15.2,13.3-15.2c8,0,13.4,6.1,13.4,15.2C243,84.8,237.7,90.9,229.7,90.9z"></path> <path class="st0" d="M217.7,109.6v6.2h25c5.1,0,7.5-2.4,7.5-7.5v-14h-7v13.2c0,1.4-0.7,2-2,2H217.7z"></path> </g> </g> <g> <path class="st1" d="M567.8,62.5l-33.9-33.9h0c-13.9,13.9-22.4,33-22.4,54.2c0,21.2,8.6,40.3,22.5,54.2l33.9-33.9c0,0,0,0,0.1-0.1 l0.1-0.1c11.2-11,29.2-11,40.4,0.1L567.8,62.5z"></path> <linearGradient id="SVGID_1_" gradientUnits="userSpaceOnUse" x1="603.5663" y1="106.7894" x2="707.608" y2="68.9213"> <stop offset="0" style="stop-color:#005CFF"></stop> <stop offset="3.194183e-02" style="stop-color:#0157F1"></stop> <stop offset="0.1475" style="stop-color:#0245C6"></stop> <stop offset="0.2684" style="stop-color:#0436A0"></stop> <stop offset="0.3934" style="stop-color:#052A81"></stop> <stop offset="0.5237" style="stop-color:#062069"></stop> <stop offset="0.6617" style="stop-color:#071958"></stop> <stop offset="0.8124" style="stop-color:#07154E"></stop> <stop offset="1" style="stop-color:#07144B"></stop> </linearGradient> <path class="st2" d="M567.9,62.6c11.2,11.1,29.2,11.1,40.4,0.1c0,0,0,0,0.1-0.1c0,0,0.1-0.1,0.1-0.1l0,0l33.9-33.9l27.1-27.1 c20.8,20.8,33.7,49.5,33.7,81.3s-12.9,60.5-33.7,81.3L642.3,137v0l-34-34L567.9,62.6z"></path> </g> </g> </svg> 