<svg id="Layer_1" data-name="Layer 1" xmlns="http://www.w3.org/2000/svg" xmlns:xlink="http://www.w3.org/1999/xlink" viewBox="0 0 1922.54 607.27"><defs><style>.cls-1{fill:none;}.cls-2{fill:#102b7a;}.cls-3{clip-path:url(#clip-path);}.cls-4{fill:#fff;}</style><clipPath id="clip-path"><polyline class="cls-1" points="801.25 -159.75 779.45 361.8 805.6 530.41 1686.64 118.24"/></clipPath></defs><title>Ciber-Cancelacion_Hipo-Mock_Desk</title><path class="cls-2" d="M-28.06,569.64H606.18s104.62,3.27,199.42-39.23L1946.57-3V-159.75H-28.06Z"/><path class="cls-2" d="M801.24,359.89c2.51-.65,5-1.88,7.52-1.87,31.57.1,63.15.24,94.72.68,19.6.28,39.2,1.1,58.8,1.67,4.78.14,7.39-1.91,7.16-7-.45-9.58,4.72-15.5,12.25-20.78,49.2-34.57,98.19-69.44,147.27-104.18a33.56,33.56,0,0,0,14.66-28.19c.16-20.08,4.42-38.71,16.58-55a79.38,79.38,0,0,1,44.62-30.14c13.51-3.55,26.73-4,40.12-.09,4.7,1.38,8,0,11.22-4.14,12.16-16.08,28.56-26,47.53-32.59,18.06-6.29,36.55-7.74,55.13-5.85,20.75,2.12,40.67,7.79,56.52,22.58,12.23,11.41,17.89,25.09,14.09,42.07-2.22,9.95-2.81,19.82,9,26.3-6.68,3.68-4.69,7.19-1.81,11.17,3.39,4.69,6.25,9.76,9.35,14.67l2.39-1.13c-2.65-6.92-5.31-13.84-8.48-22.09,3.61-1,7.36-2.61,11.21-2.92,20.91-1.66,41.86-2.77,62.76-4.51,20.65-1.73,41.24-4.16,61.88-5.93,9.45-.81,14,2,19.9,10.57a5.74,5.74,0,0,1-.86,1.69c-9.42,9.26-9.41,12.24.13,21.07q25,23.18,50.07,46.36c6.42,6,6.31,6.82-.52,12.56-4.94,4.15-9.83,8.36-14.75,12.54l1.42,1.79c5.17-4.09,10.63-7.87,15.43-12.34,5-4.66,8.65-4.8,13.64.41,10.49,11,21.65,21.27,32.52,31.86a12.68,12.68,0,0,1,2.75,3.09c6.93,14.3,19.82,14.56,32.63,12.87,18.9-2.49,37.59-6.54,56.48-9.21,17.26-2.43,34.65-5.09,52-5.37,11.52-.19,23.1,3.64,34.66,5.67l-.39,3c-2.24-.24-4.5-.4-6.72-.74-11.74-1.82-23.6-5.74-35.19-5.07-19.65,1.13-39.13,5.11-58.67,8-15.92,2.33-31.74,5.59-47.73,7-12.14,1-22-2.36-30.36-14.11-9.7-13.63-23.74-24.24-36.32-35.69-1.22-1.11-6.06.23-8.12,1.83-11,8.6-21.73,17.66-32.59,26.5-1.38,1.13-3.32,2.92-4.59,2.63-6.87-1.58-10.56,3.18-14.81,6.79-18.21,15.48-36.44,30.94-54.47,46.63-3.52,3.06-5.74,3.32-9.14-.13q-25.19-25.59-50.77-50.77c-4-3.92-3.73-6.84.69-10,9.42-6.84,19-13.47,28-20.87s17.6-15.77,26.15-23.93c4.52-4.33,8.27-4.48,12.66.2,4.54,4.85,9.47,9.34,14.42,13.78,3.57,3.2,6.32,8,12.65,6.38,1.34-.34,3.55,1.85,5,3.21,6.64,6,13.3,12,19.67,18.29,3.43,3.38,6.14,3.91,10,.49,10.28-9.16,20.78-18.08,31.31-27,3.73-3.16,3.55-5.59-.06-8.86-16.71-15.11-33.38-30.28-49.73-45.78a33.18,33.18,0,0,1-7.47-11.9c-.83-2.12.86-5.34,1.74-8,.79-2.35,3.51-5.61,2.79-6.61a19.62,19.62,0,0,0-7.94-5.88c-1.91-.84-4.55-.18-6.84,0-30.73,2.86-61.45,5.83-92.19,8.59-9.64.87-19.35,1-29,1.82-8.51.74-9.15,2.27-5.85,9.79,1.65,3.77,3.31,7.71,3.83,11.72.29,2.24-1.75,4.77-2.74,7.18-1.94-1.27-4.48-2.12-5.7-3.88-3.65-5.24-6.5-11-10.19-16.26-4.57-6.48-6.77-6.54-10.89.35a56.13,56.13,0,0,0-5.9,15.25c-2.88,11.55-5.11,23.26-7.78,34.88-.48,2.11-1.77,4-2.69,6.07-1.88-1-4.09-1.66-5.59-3.06-9.81-9.12-10.13-9.2-20.4-.62q-6.35,5.3-12.61,10.69a31.28,31.28,0,0,0-2.39,2.68c1.86,2.22,3.59,4.51,5.55,6.59,7.75,8.2,15.49,16.42,23.42,24.45,3.35,3.41,4.3,6.52,3.15,11.6-2.64,11.63-4.14,23.52-5.67,35.37-.27,2.08,1.57,4.43,2.44,6.66,2-.89,4.27-1.45,6-2.73a125.19,125.19,0,0,0,12.14-10.12c4-3.87,7-2.94,10.49.58q25,24.9,50.15,49.6,28.27,27.87,56.65,55.66c7.07,6.88,12.63,7.14,20,.78q64.62-56,129.1-112.08A149.66,149.66,0,0,1,1695.2,294c-.28,9.26-5.2,16-11.29,21.78-7.31,7-15,13.56-22.63,20.17q-57.09,49.43-114.24,98.79c-11.36,9.82-16.48,9.86-27.15-.41q-48.2-46.4-96.27-92.89c-1.83-1.76-3.8-3.36-5.63-5.11-5.34-5.07-10.38-4.66-15.68.28-4.49,4.19-9.25,9.74-16.17,5.75-6.5-3.76-5.27-10.73-4.43-16.89,1.31-9.55,3.41-19,4.32-28.59a15.16,15.16,0,0,0-3.12-10.37c-6.51-7.41-13.77-14.17-20.89-21-3.54-3.43-5.5-6.85-4.15-12.19.94-3.71.18-7.85.18-11.8l-2.08-.41c-1.44,3.39-3.08,6.7-4.28,10.17-10.07,29.1-30.11,47.42-59.87,55.09-5.51,1.42-11.29,2.69-16.91,2.53-3.31-.09-8.3-2.36-9.46-5-3.5-8-9.86-12.51-16.59-16.93-4.79-3.15-9.72-6.09-14.56-9.16-7-4.45-9.28-4.15-13.09,2.87-12.57,23.14-25.39,46.17-37.3,69.65-16.87,33.25-33.09,66.84-49.41,100.36-3.3,6.78-5.8,13.94-8.73,20.89-1.84,4.36.14,7,3.85,8.89,10.79,5.49,16.23,4,22.05-6.59q32.86-59.94,65.5-120c10.09-18.49,20.28-36.93,30.28-55.46,1.88-3.48,3.54-3.79,6.17-.92,12.31,13.37,13.54,26.79,3.12,42.11-1.37,2-5.46,3.3-8.13,3.07-4.69-.41-7.57,1.05-10.72,4.42a35.18,35.18,0,0,1-11.81,8.63c-9.37,3.81-13.18,12.32-10.08,21.79,1.24,3.79-.21,8.69-1.22,12.9a33.59,33.59,0,0,1-4.59,11.21,22.38,22.38,0,0,1-8.63,7.61c-7.59,3.41-11.81,11.19-9.26,19.25,1.48,4.69-.91,6.8-5,8.06-8.94,2.79-11.83,8.48-8.45,17.28,1.89,4.9-.18,7.45-4.43,9-9.16,3.46-11.61,8.09-10.28,18,.27,2-1.1,5.51-2.7,6.29-9.61,4.66-19.79,7.83-30.62,6.1-4.09-.65-8.69-2.16-11.69-4.82-8.94-7.9-15.78-29.55-8.12-43.74,26.65-49.34,52.64-99,78.76-148.64,7.41-14.08,8.77-28.19-.33-42.38-7.23-11.28-10.31-24.31-10.89-37.28-.85-18.84,5.4-36.25,17-51.2,18.89-24.33,44.16-32.08,74-27,2.1.35,4.31,0,8.21,0-9.8-7-17.28-14.51-26.32-18.28a65.58,65.58,0,0,0-36.65-4.09c-23.8,4.25-42.85,16.13-55.79,36.77a75.77,75.77,0,0,0-12.08,41c0,9.84-1.1,19.34-6.89,27.52a43.58,43.58,0,0,1-9.86,10.32q-74.36,52.89-149,105.39c-6.33,4.44-9,10.07-8.84,17.5.16,5.49,2,6.69,6.78,3.57,9.4-6.17,18.64-12.6,27.83-19.1q74.48-52.72,148.92-105.52c7.77-5.5,11-5.64,15.43,2.9,6,11.46,10.16,23.87,14.78,36,.58,1.53-.43,4.09-1.44,5.72a146,146,0,0,1-9.66,14.2c-5,6.26-8.65,6.88-15.4,2.49-3.38-2.21-6.24-3.12-9.16,0-4,4.37-8.78,4.29-14,3-8.77-2.15-18.41,3.75-20.82,12.61-3.7,13.6-18.52,25.3-32.82,25.67-7.17.19-11.54,3.8-13.69,10.35-1.42,4.34-3.5,7.53-8.82,6.62-9.27-1.59-13.75,4.6-16.58,11.52-1.73,4.23-3.81,5.72-7.91,5.87-8.93.33-16.49,2.26-17.46,13.41-.14,1.61-4.14,4.32-6.08,4.1-13.27-1.47-26.45-3.85-37.89-11.3-2.38-1.55-3.43-5-5.49-7.22s-4.65-5.68-7.1-5.76q-66-2.25-132.1-3.58c-9.33-.18-18.69,1.3-28,2Zm613.31-177.45c-2.43.83-4,.9-4.85,1.71a105.78,105.78,0,0,1-49.32,26.1c-13.05,3-26.18,6-40.17,3.34-9.88-1.91-20-4.07-30.63-1.88-5.14,1.07-11.52-.61-16.55-2.84-12.16-5.41-18-21.36-13.64-31.7,6.64-15.79,35.19-16.26,42.34-1.2,2.54,5.36,6.6,8.69,12.63,9.18a107.59,107.59,0,0,0,12.42.6c5.31-.18,6.32-2.62,3.15-7-22.36-31.17-61.84-48.24-101.29-34.11-25.36,9.09-38.32,28.4-44.72,52.59-5.27,19.88-1.17,39.3,9.42,56.9,7.9,13.14,7.46,26.08.86,39.19-8.33,16.56-16.88,33-25.52,49.4-18.13,34.42-36.47,68.73-54.54,103.19-6.29,12-2.29,32.79,7.3,40.53,7.91,6.39,30.1,5.2,37.66-2.29,1.18-1.17,1.49-3.66,1.44-5.52-.28-9.84,2.6-14.4,11.66-18.53,1.41-.64,3.31-2.59,3.19-3.76-.39-4.08-1.57-8.09-2.81-13.81-7,12.75-13.23,23.64-19,34.75-2.79,5.36-6.61,8.87-12.69,9-7.16.19-13.88-1.55-18-8a8.53,8.53,0,0,1-.44-6.93c5.62-13,11.18-26.09,17.59-38.72q38.36-75.54,77.32-150.77c7.85-15.09,5.89-15,20.71-5.39,9.82,6.36,21.45,10.68,27.83,21.72,4.8,8.31,9.51,9.85,19,7.17,1.77-.5,3.44-1.36,5.23-1.77,27.4-6.3,45.62-23.63,57.27-48.31,3.54-7.48,6.72-15.44-3.22-22.2-5.42-3.69-3.62-11.8,3.65-18.27,2.36,5.66,5.14,10.58,6.44,15.86,1.91,7.74,5.13,9.28,11.29,4.22,5.51-4.52,10.9-9.17,16.42-13.67,6.8-5.53,8.46-5.42,15.42.22,2,1.6,4.21,2.89,7.15,4.88C1407.94,211.29,1411.09,197.54,1414.55,182.44Zm12-51.51,1.56-1.32c-1.17-11.71-4.5-22.5-13.48-31.05-16.15-15.4-36.46-20.86-57.7-23.07a123,123,0,0,0-51.78,5.67A101.3,101.3,0,0,0,1259.92,111c-3.42,3.9-3.7,6.28,1.48,8.82,7.64,3.74,15,8,22.37,12.3,2,1.2,5.12,4,4.76,5.21-1.55,5,2.52,5.72,4.94,6.82,17,7.75,30,20,40.82,34.95,2,2.74,3.22,6,5.44,10.24,18.46-2.15,35.69-9.52,51.33-21.61a37.44,37.44,0,0,1-1.67-3.57c-4.23-12.74,2-22.06,15.18-22.23,5.66-.07,6.46-4.2,6.72-7.87.63-9.11-1.32-20.62-12.41-25.55-9-4-18-7.88-27.22-11.06a83.19,83.19,0,0,0-48.3-1.58c-16.14,4.21-31,12.36-44.39,22.65-1.73,1.33-4,2-6,2.92l-1.94-2c2.11-3.17,3.74-6.84,6.43-9.43,18.35-17.63,40.84-25.91,65.86-27.29,7.42-.41,15,1.44,22.47,2.45a60.74,60.74,0,0,1,37.22,19c7,7.5,12.91,16,19.44,24C1423.43,129.37,1425.18,130,1426.6,130.93ZM1058.52,351.4c2.63-2.14,6.46-3.76,7.68-6.53,3.54-8,7.83-11.64,16.4-11.84,12.66-.29,27-11.59,30.19-23.83,2.72-10.35,13.8-17.51,24-14.56,5.25,1.52,8.45-.09,12.5-2.93,2.45-1.72,7.2-2.53,9.79-1.33,9.49,4.41,9.48,4.83,15.75-3.28a129.45,129.45,0,0,0,7.37-10.76c.78-1.26,1.54-3.27,1.08-4.45-4.53-11.45-9-22.92-14.17-34.11-2.26-4.92-5.78-5.86-11-2.1Q1083.3,289,1008.19,341.91c-9.92,7-20.14,13.58-30.16,20.45-2.15,1.47-5.91,3.76-5.65,5,.62,2.93,2.63,7,5.07,7.85,10.72,3.87,21.74,7,32.8,9.77,1.45.37,5.18-2.32,5.4-3.94,1.51-11,9.36-12.7,18.31-13.78,2.31-.28,4.81-2.6,6.37-4.63C1044.83,356.74,1047.84,349.15,1058.52,351.4Zm422-73.5c6.46,5.88,11.87,10.49,16.91,15.47,8.31,8.22,8.2,8.32,17.34,1.5l18.91-14.11c.54.59,1.08,1.17,1.63,1.75a51,51,0,0,1-4,4.84c-5.32,5.1-10.65,10.2-16.19,15.06-3.38,3-3.52,5.28-.14,8.45,6,5.64,11.73,11.61,17.48,17.53,2.95,3,5.75,3.18,9,.38,7.45-6.48,15-12.81,22.45-19.32a15.6,15.6,0,0,0,2.52-3.76c-3.68-3.21-6.82-5.85-9.86-8.6q-4.85-4.39-9.53-9c-10.19-9.88-10.14-9.85.8-19,7-5.81,13.82-11.75,21.23-18.06-8.11-7.62-15.09-14.64-22.69-20.92-1.65-1.36-6.28-1.08-8.24.29-6.56,4.6-12.47,10.11-18.76,15.12-3.28,2.62-3.37,5-.52,8,4.72,5,9.28,10.22,13.73,15.5,1.36,1.61,2.14,3.71,3.19,5.59l-1.53,1c-7-5.81-14-11.75-21.2-17.32-1.74-1.33-5.42-2.7-6.53-1.86C1498.11,262.89,1490.19,269.79,1480.49,277.9Zm206.78,30-1.76-2.15c-1.54,1.08-3.19,2-4.61,3.25q-28.65,24.72-57.25,49.51c-23.91,20.72-47.72,41.54-71.71,62.15-10.56,9.07-17.14,8.69-26.89-.92q-36.73-36.23-73.41-72.49c-11.56-11.39-23.21-22.69-35.17-34.37-4.39,3.63-8.27,6.82-12.14,10-8.94,7.45-8.94,7.46-18.95,1.84-.39,2.69-1.4,5.21-.92,7.41.57,2.66,1.82,6.26,3.84,7.2s5.31-.84,7.75-2.05c2.21-1.1,4-3,6-4.65,4.91-4.07,10-4.18,15.22-.7a55.61,55.61,0,0,1,7.6,5.85q48.45,46.63,96.79,93.36c10.52,10.14,12.92,10.11,24.12.41Q1607.35,378.2,1669,324.82C1675.25,319.37,1681.18,313.54,1687.27,307.88Zm-272.53-147c-4.53-7-6-7-11.28-1.16-4,4.42-8.1,8.89-12.82,12.44-16.49,12.38-35.12,19.13-55.78,21-15.45,1.36-30.16-.47-44.24-6.85-4.76-2.17-9.09-5.5-14-7.07-2.4-.76-5.71,1.29-8.6,2.06,1.17,2.07,1.87,5.32,3.59,6,11.19,4.4,22.33,9.71,34,11.92,18.64,3.52,37.45,2,56-2.85C1383.58,190.52,1400.75,178.11,1414.74,160.83Zm150.58,139c1.3-.46,2.58-.57,3.38-1.24,7.74-6.5,15.54-12.94,22.92-19.82,1.07-1,1-5.07-.17-6.3a160.24,160.24,0,0,0-16.36-15.66c-1.51-1.24-5.67-1.25-7.25,0-7.66,5.83-14.77,12.39-22.27,18.43-3.13,2.52-2.37,4.62-.1,6.82,5.44,5.27,11,10.46,16.52,15.62A24.25,24.25,0,0,0,1565.32,299.85ZM1261.51,185c0,2.52-.47,4.38.07,5.88,3.67,10.3,15.17,21,27.46,18.19,6.49-1.5,12.15-.83,18.52-.05,19.15,2.34,38.38,3.49,57.29-3,20.88-7.15,39-18.11,52.61-35.67,1.51-2,2.24-4.49,3.33-6.76l-2-2.13c-19,23.9-43.31,37.14-73.27,41.25S1288.15,202.27,1261.51,185Zm-39.73,167.48c7.25.31,10.84-2.5,13.46-6.63,3-4.76,6.68-7.29,12.64-6a7.37,7.37,0,0,0,5.72-1.33c7.33-6.61,8-25.44,1.84-33.15-3.44-4.28-5.77-4.82-8.45.54s-5.81,10.41-8.64,15.65C1233,331.34,1227.81,341.18,1221.78,352.44Zm141.32-105.8-2.06.75c.34,4.37-1,10.17,1.32,12.85,8.62,10,18.44,18.91,27.93,28.36,4.61-8.56,4.55-10.23-1.12-16.23-6.74-7.15-13.6-14.2-20.51-21.2A62.38,62.38,0,0,0,1363.1,246.64Zm-76.48-138.37C1318.44,88,1352.1,85.54,1387.33,98,1362.07,78.81,1316,82.26,1286.62,108.27ZM1300.38,187c-.4-13.09-10-19.71-22.45-18.78-8.57.63-13,4.09-12.87,10.81,6.16-5.35,11.83-4.3,18.11-.21C1288.45,182.21,1294.61,184.29,1300.38,187ZM1190,411.86c5.18-2.45,8.8-3.76,12-5.79a16.67,16.67,0,0,0,5.4-5.77,65.17,65.17,0,0,0,5-11.76,29.86,29.86,0,0,0,1.22-9.22c0-1.06-1.89-2.76-3.1-2.93-1-.15-2.7,1.27-3.35,2.41-4.59,8.17-9,16.43-13.43,24.72C1192.48,405.93,1191.52,408.51,1190,411.86Zm230.2-263.13c6.17-6.23,4-16.88-5-23.37-.37,4,.07,7.84-1.19,11C1411.37,143,1414.14,146.25,1420.24,148.73ZM1185.31,418.47c-3,6-5.73,11.53-8.45,17C1190.21,430.66,1190.9,429.09,1185.31,418.47ZM1391.42,156.6l3.45,1.84c-1.62-10.32,6.34-9.13,11.63-12-3.86-.87-8.16-1.4-10.46.49C1393.53,149,1392.88,153.28,1391.42,156.6Zm-41.78,76,2.26-1.21q-2.31-5-4.63-9.92l-2.17.93C1344.14,226.73,1343.44,231,1349.64,232.56Z"/><g class="cls-3"><path class="cls-4" d="M801.24,359.89c2.51-.65,5-1.88,7.52-1.87,31.57.1,63.15.24,94.72.68,19.6.28,39.2,1.1,58.8,1.67,4.78.14,7.39-1.91,7.16-7-.45-9.58,4.72-15.5,12.25-20.78,49.2-34.57,98.19-69.44,147.27-104.18a33.56,33.56,0,0,0,14.66-28.19c.16-20.08,4.42-38.71,16.58-55a79.38,79.38,0,0,1,44.62-30.14c13.51-3.55,26.73-4,40.12-.09,4.7,1.38,8,0,11.22-4.14,12.16-16.08,28.56-26,47.53-32.59,18.06-6.29,36.55-7.74,55.13-5.85,20.75,2.12,40.67,7.79,56.52,22.58,12.23,11.41,17.89,25.09,14.09,42.07-2.22,9.95-2.81,19.82,9,26.3-6.68,3.68-4.69,7.19-1.81,11.17,3.39,4.69,6.25,9.76,9.35,14.67l2.39-1.13c-2.65-6.92-5.31-13.84-8.48-22.09,3.61-1,7.36-2.61,11.21-2.92,20.91-1.66,41.86-2.77,62.76-4.51,20.65-1.73,41.24-4.16,61.88-5.93,9.45-.81,14,2,19.9,10.57a5.74,5.74,0,0,1-.86,1.69c-9.42,9.26-9.41,12.24.13,21.07q25,23.18,50.07,46.36c6.42,6,6.31,6.82-.52,12.56-4.94,4.15-9.83,8.36-14.75,12.54l1.42,1.79c5.17-4.09,10.63-7.87,15.43-12.34,5-4.66,8.65-4.8,13.64.41,10.49,11,21.65,21.27,32.52,31.86a12.68,12.68,0,0,1,2.75,3.09c6.93,14.3,19.82,14.56,32.63,12.87,18.9-2.49,37.59-6.54,56.48-9.21,17.26-2.43,34.65-5.09,52-5.37,11.52-.19,23.1,3.64,34.66,5.67l-.39,3c-2.24-.24-4.5-.4-6.72-.74-11.74-1.82-23.6-5.74-35.19-5.07-19.65,1.13-39.13,5.11-58.67,8-15.92,2.33-31.74,5.59-47.73,7-12.14,1-22-2.36-30.36-14.11-9.7-13.63-23.74-24.24-36.32-35.69-1.22-1.11-6.06.23-8.12,1.83-11,8.6-21.73,17.66-32.59,26.5-1.38,1.13-3.32,2.92-4.59,2.63-6.87-1.58-10.56,3.18-14.81,6.79-18.21,15.48-36.44,30.94-54.47,46.63-3.52,3.06-5.74,3.32-9.14-.13q-25.19-25.59-50.77-50.77c-4-3.92-3.73-6.84.69-10,9.42-6.84,19-13.47,28-20.87s17.6-15.77,26.15-23.93c4.52-4.33,8.27-4.48,12.66.2,4.54,4.85,9.47,9.34,14.42,13.78,3.57,3.2,6.32,8,12.65,6.38,1.34-.34,3.55,1.85,5,3.21,6.64,6,13.3,12,19.67,18.29,3.43,3.38,6.14,3.91,10,.49,10.28-9.16,20.78-18.08,31.31-27,3.73-3.16,3.55-5.59-.06-8.86-16.71-15.11-33.38-30.28-49.73-45.78a33.18,33.18,0,0,1-7.47-11.9c-.83-2.12.86-5.34,1.74-8,.79-2.35,3.51-5.61,2.79-6.61a19.62,19.62,0,0,0-7.94-5.88c-1.91-.84-4.55-.18-6.84,0-30.73,2.86-61.45,5.83-92.19,8.59-9.64.87-19.35,1-29,1.82-8.51.74-9.15,2.27-5.85,9.79,1.65,3.77,3.31,7.71,3.83,11.72.29,2.24-1.75,4.77-2.74,7.18-1.94-1.27-4.48-2.12-5.7-3.88-3.65-5.24-6.5-11-10.19-16.26-4.57-6.48-6.77-6.54-10.89.35a56.13,56.13,0,0,0-5.9,15.25c-2.88,11.55-5.11,23.26-7.78,34.88-.48,2.11-1.77,4-2.69,6.07-1.88-1-4.09-1.66-5.59-3.06-9.81-9.12-10.13-9.2-20.4-.62q-6.35,5.3-12.61,10.69a31.28,31.28,0,0,0-2.39,2.68c1.86,2.22,3.59,4.51,5.55,6.59,7.75,8.2,15.49,16.42,23.42,24.45,3.35,3.41,4.3,6.52,3.15,11.6-2.64,11.63-4.14,23.52-5.67,35.37-.27,2.08,1.57,4.43,2.44,6.66,2-.89,4.27-1.45,6-2.73a125.19,125.19,0,0,0,12.14-10.12c4-3.87,7-2.94,10.49.58q25,24.9,50.15,49.6,28.27,27.87,56.65,55.66c7.07,6.88,12.63,7.14,20,.78q64.62-56,129.1-112.08A149.66,149.66,0,0,1,1695.2,294c-.28,9.26-5.2,16-11.29,21.78-7.31,7-15,13.56-22.63,20.17q-57.09,49.43-114.24,98.79c-11.36,9.82-16.48,9.86-27.15-.41q-48.2-46.4-96.27-92.89c-1.83-1.76-3.8-3.36-5.63-5.11-5.34-5.07-10.38-4.66-15.68.28-4.49,4.19-9.25,9.74-16.17,5.75-6.5-3.76-5.27-10.73-4.43-16.89,1.31-9.55,3.41-19,4.32-28.59a15.16,15.16,0,0,0-3.12-10.37c-6.51-7.41-13.77-14.17-20.89-21-3.54-3.43-5.5-6.85-4.15-12.19.94-3.71.18-7.85.18-11.8l-2.08-.41c-1.44,3.39-3.08,6.7-4.28,10.17-10.07,29.1-30.11,47.42-59.87,55.09-5.51,1.42-11.29,2.69-16.91,2.53-3.31-.09-8.3-2.36-9.46-5-3.5-8-9.86-12.51-16.59-16.93-4.79-3.15-9.72-6.09-14.56-9.16-7-4.45-9.28-4.15-13.09,2.87-12.57,23.14-25.39,46.17-37.3,69.65-16.87,33.25-33.09,66.84-49.41,100.36-3.3,6.78-5.8,13.94-8.73,20.89-1.84,4.36.14,7,3.85,8.89,10.79,5.49,16.23,4,22.05-6.59q32.86-59.94,65.5-120c10.09-18.49,20.28-36.93,30.28-55.46,1.88-3.48,3.54-3.79,6.17-.92,12.31,13.37,13.54,26.79,3.12,42.11-1.37,2-5.46,3.3-8.13,3.07-4.69-.41-7.57,1.05-10.72,4.42a35.18,35.18,0,0,1-11.81,8.63c-9.37,3.81-13.18,12.32-10.08,21.79,1.24,3.79-.21,8.69-1.22,12.9a33.59,33.59,0,0,1-4.59,11.21,22.38,22.38,0,0,1-8.63,7.61c-7.59,3.41-11.81,11.19-9.26,19.25,1.48,4.69-.91,6.8-5,8.06-8.94,2.79-11.83,8.48-8.45,17.28,1.89,4.9-.18,7.45-4.43,9-9.16,3.46-11.61,8.09-10.28,18,.27,2-1.1,5.51-2.7,6.29-9.61,4.66-19.79,7.83-30.62,6.1-4.09-.65-8.69-2.16-11.69-4.82-8.94-7.9-15.78-29.55-8.12-43.74,26.65-49.34,52.64-99,78.76-148.64,7.41-14.08,8.77-28.19-.33-42.38-7.23-11.28-10.31-24.31-10.89-37.28-.85-18.84,5.4-36.25,17-51.2,18.89-24.33,44.16-32.08,74-27,2.1.35,4.31,0,8.21,0-9.8-7-17.28-14.51-26.32-18.28a65.58,65.58,0,0,0-36.65-4.09c-23.8,4.25-42.85,16.13-55.79,36.77a75.77,75.77,0,0,0-12.08,41c0,9.84-1.1,19.34-6.89,27.52a43.58,43.58,0,0,1-9.86,10.32q-74.36,52.89-149,105.39c-6.33,4.44-9,10.07-8.84,17.5.16,5.49,2,6.69,6.78,3.57,9.4-6.17,18.64-12.6,27.83-19.1q74.48-52.72,148.92-105.52c7.77-5.5,11-5.64,15.43,2.9,6,11.46,10.16,23.87,14.78,36,.58,1.53-.43,4.09-1.44,5.72a146,146,0,0,1-9.66,14.2c-5,6.26-8.65,6.88-15.4,2.49-3.38-2.21-6.24-3.12-9.16,0-4,4.37-8.78,4.29-14,3-8.77-2.15-18.41,3.75-20.82,12.61-3.7,13.6-18.52,25.3-32.82,25.67-7.17.19-11.54,3.8-13.69,10.35-1.42,4.34-3.5,7.53-8.82,6.62-9.27-1.59-13.75,4.6-16.58,11.52-1.73,4.23-3.81,5.72-7.91,5.87-8.93.33-16.49,2.26-17.46,13.41-.14,1.61-4.14,4.32-6.08,4.1-13.27-1.47-26.45-3.85-37.89-11.3-2.38-1.55-3.43-5-5.49-7.22s-4.65-5.68-7.1-5.76q-66-2.25-132.1-3.58c-9.33-.18-18.69,1.3-28,2Zm613.31-177.45c-2.43.83-4,.9-4.85,1.71a105.78,105.78,0,0,1-49.32,26.1c-13.05,3-26.18,6-40.17,3.34-9.88-1.91-20-4.07-30.63-1.88-5.14,1.07-11.52-.61-16.55-2.84-12.16-5.41-18-21.36-13.64-31.7,6.64-15.79,35.19-16.26,42.34-1.2,2.54,5.36,6.6,8.69,12.63,9.18a107.59,107.59,0,0,0,12.42.6c5.31-.18,6.32-2.62,3.15-7-22.36-31.17-61.84-48.24-101.29-34.11-25.36,9.09-38.32,28.4-44.72,52.59-5.27,19.88-1.17,39.3,9.42,56.9,7.9,13.14,7.46,26.08.86,39.19-8.33,16.56-16.88,33-25.52,49.4-18.13,34.42-36.47,68.73-54.54,103.19-6.29,12-2.29,32.79,7.3,40.53,7.91,6.39,30.1,5.2,37.66-2.29,1.18-1.17,1.49-3.66,1.44-5.52-.28-9.84,2.6-14.4,11.66-18.53,1.41-.64,3.31-2.59,3.19-3.76-.39-4.08-1.57-8.09-2.81-13.81-7,12.75-13.23,23.64-19,34.75-2.79,5.36-6.61,8.87-12.69,9-7.16.19-13.88-1.55-18-8a8.53,8.53,0,0,1-.44-6.93c5.62-13,11.18-26.09,17.59-38.72q38.36-75.54,77.32-150.77c7.85-15.09,5.89-15,20.71-5.39,9.82,6.36,21.45,10.68,27.83,21.72,4.8,8.31,9.51,9.85,19,7.17,1.77-.5,3.44-1.36,5.23-1.77,27.4-6.3,45.62-23.63,57.27-48.31,3.54-7.48,6.72-15.44-3.22-22.2-5.42-3.69-3.62-11.8,3.65-18.27,2.36,5.66,5.14,10.58,6.44,15.86,1.91,7.74,5.13,9.28,11.29,4.22,5.51-4.52,10.9-9.17,16.42-13.67,6.8-5.53,8.46-5.42,15.42.22,2,1.6,4.21,2.89,7.15,4.88C1407.94,211.29,1411.09,197.54,1414.55,182.44Zm12-51.51,1.56-1.32c-1.17-11.71-4.5-22.5-13.48-31.05-16.15-15.4-36.46-20.86-57.7-23.07a123,123,0,0,0-51.78,5.67A101.3,101.3,0,0,0,1259.92,111c-3.42,3.9-3.7,6.28,1.48,8.82,7.64,3.74,15,8,22.37,12.3,2,1.2,5.12,4,4.76,5.21-1.55,5,2.52,5.72,4.94,6.82,17,7.75,30,20,40.82,34.95,2,2.74,3.22,6,5.44,10.24,18.46-2.15,35.69-9.52,51.33-21.61a37.44,37.44,0,0,1-1.67-3.57c-4.23-12.74,2-22.06,15.18-22.23,5.66-.07,6.46-4.2,6.72-7.87.63-9.11-1.32-20.62-12.41-25.55-9-4-18-7.88-27.22-11.06a83.19,83.19,0,0,0-48.3-1.58c-16.14,4.21-31,12.36-44.39,22.65-1.73,1.33-4,2-6,2.92l-1.94-2c2.11-3.17,3.74-6.84,6.43-9.43,18.35-17.63,40.84-25.91,65.86-27.29,7.42-.41,15,1.44,22.47,2.45a60.74,60.74,0,0,1,37.22,19c7,7.5,12.91,16,19.44,24C1423.43,129.37,1425.18,130,1426.6,130.93ZM1058.52,351.4c2.63-2.14,6.46-3.76,7.68-6.53,3.54-8,7.83-11.64,16.4-11.84,12.66-.29,27-11.59,30.19-23.83,2.72-10.35,13.8-17.51,24-14.56,5.25,1.52,8.45-.09,12.5-2.93,2.45-1.72,7.2-2.53,9.79-1.33,9.49,4.41,9.48,4.83,15.75-3.28a129.45,129.45,0,0,0,7.37-10.76c.78-1.26,1.54-3.27,1.08-4.45-4.53-11.45-9-22.92-14.17-34.11-2.26-4.92-5.78-5.86-11-2.1Q1083.3,289,1008.19,341.91c-9.92,7-20.14,13.58-30.16,20.45-2.15,1.47-5.91,3.76-5.65,5,.62,2.93,2.63,7,5.07,7.85,10.72,3.87,21.74,7,32.8,9.77,1.45.37,5.18-2.32,5.4-3.94,1.51-11,9.36-12.7,18.31-13.78,2.31-.28,4.81-2.6,6.37-4.63C1044.83,356.74,1047.84,349.15,1058.52,351.4Zm422-73.5c6.46,5.88,11.87,10.49,16.91,15.47,8.31,8.22,8.2,8.32,17.34,1.5l18.91-14.11c.54.59,1.08,1.17,1.63,1.75a51,51,0,0,1-4,4.84c-5.32,5.1-10.65,10.2-16.19,15.06-3.38,3-3.52,5.28-.14,8.45,6,5.64,11.73,11.61,17.48,17.53,2.95,3,5.75,3.18,9,.38,7.45-6.48,15-12.81,22.45-19.32a15.6,15.6,0,0,0,2.52-3.76c-3.68-3.21-6.82-5.85-9.86-8.6q-4.85-4.39-9.53-9c-10.19-9.88-10.14-9.85.8-19,7-5.81,13.82-11.75,21.23-18.06-8.11-7.62-15.09-14.64-22.69-20.92-1.65-1.36-6.28-1.08-8.24.29-6.56,4.6-12.47,10.11-18.76,15.12-3.28,2.62-3.37,5-.52,8,4.72,5,9.28,10.22,13.73,15.5,1.36,1.61,2.14,3.71,3.19,5.59l-1.53,1c-7-5.81-14-11.75-21.2-17.32-1.74-1.33-5.42-2.7-6.53-1.86C1498.11,262.89,1490.19,269.79,1480.49,277.9Zm206.78,30-1.76-2.15c-1.54,1.08-3.19,2-4.61,3.25q-28.65,24.72-57.25,49.51c-23.91,20.72-47.72,41.54-71.71,62.15-10.56,9.07-17.14,8.69-26.89-.92q-36.73-36.23-73.41-72.49c-11.56-11.39-23.21-22.69-35.17-34.37-4.39,3.63-8.27,6.82-12.14,10-8.94,7.45-8.94,7.46-18.95,1.84-.39,2.69-1.4,5.21-.92,7.41.57,2.66,1.82,6.26,3.84,7.2s5.31-.84,7.75-2.05c2.21-1.1,4-3,6-4.65,4.91-4.07,10-4.18,15.22-.7a55.61,55.61,0,0,1,7.6,5.85q48.45,46.63,96.79,93.36c10.52,10.14,12.92,10.11,24.12.41Q1607.35,378.2,1669,324.82C1675.25,319.37,1681.18,313.54,1687.27,307.88Zm-272.53-147c-4.53-7-6-7-11.28-1.16-4,4.42-8.1,8.89-12.82,12.44-16.49,12.38-35.12,19.13-55.78,21-15.45,1.36-30.16-.47-44.24-6.85-4.76-2.17-9.09-5.5-14-7.07-2.4-.76-5.71,1.29-8.6,2.06,1.17,2.07,1.87,5.32,3.59,6,11.19,4.4,22.33,9.71,34,11.92,18.64,3.52,37.45,2,56-2.85C1383.58,190.52,1400.75,178.11,1414.74,160.83Zm150.58,139c1.3-.46,2.58-.57,3.38-1.24,7.74-6.5,15.54-12.94,22.92-19.82,1.07-1,1-5.07-.17-6.3a160.24,160.24,0,0,0-16.36-15.66c-1.51-1.24-5.67-1.25-7.25,0-7.66,5.83-14.77,12.39-22.27,18.43-3.13,2.52-2.37,4.62-.1,6.82,5.44,5.27,11,10.46,16.52,15.62A24.25,24.25,0,0,0,1565.32,299.85ZM1261.51,185c0,2.52-.47,4.38.07,5.88,3.67,10.3,15.17,21,27.46,18.19,6.49-1.5,12.15-.83,18.52-.05,19.15,2.34,38.38,3.49,57.29-3,20.88-7.15,39-18.11,52.61-35.67,1.51-2,2.24-4.49,3.33-6.76l-2-2.13c-19,23.9-43.31,37.14-73.27,41.25S1288.15,202.27,1261.51,185Zm-39.73,167.48c7.25.31,10.84-2.5,13.46-6.63,3-4.76,6.68-7.29,12.64-6a7.37,7.37,0,0,0,5.72-1.33c7.33-6.61,8-25.44,1.84-33.15-3.44-4.28-5.77-4.82-8.45.54s-5.81,10.41-8.64,15.65C1233,331.34,1227.81,341.18,1221.78,352.44Zm141.32-105.8-2.06.75c.34,4.37-1,10.17,1.32,12.85,8.62,10,18.44,18.91,27.93,28.36,4.61-8.56,4.55-10.23-1.12-16.23-6.74-7.15-13.6-14.2-20.51-21.2A62.38,62.38,0,0,0,1363.1,246.64Zm-76.48-138.37C1318.44,88,1352.1,85.54,1387.33,98,1362.07,78.81,1316,82.26,1286.62,108.27ZM1300.38,187c-.4-13.09-10-19.71-22.45-18.78-8.57.63-13,4.09-12.87,10.81,6.16-5.35,11.83-4.3,18.11-.21C1288.45,182.21,1294.61,184.29,1300.38,187ZM1190,411.86c5.18-2.45,8.8-3.76,12-5.79a16.67,16.67,0,0,0,5.4-5.77,65.17,65.17,0,0,0,5-11.76,29.86,29.86,0,0,0,1.22-9.22c0-1.06-1.89-2.76-3.1-2.93-1-.15-2.7,1.27-3.35,2.41-4.59,8.17-9,16.43-13.43,24.72C1192.48,405.93,1191.52,408.51,1190,411.86Zm230.2-263.13c6.17-6.23,4-16.88-5-23.37-.37,4,.07,7.84-1.19,11C1411.37,143,1414.14,146.25,1420.24,148.73ZM1185.31,418.47c-3,6-5.73,11.53-8.45,17C1190.21,430.66,1190.9,429.09,1185.31,418.47ZM1391.42,156.6l3.45,1.84c-1.62-10.32,6.34-9.13,11.63-12-3.86-.87-8.16-1.4-10.46.49C1393.53,149,1392.88,153.28,1391.42,156.6Zm-41.78,76,2.26-1.21q-2.31-5-4.63-9.92l-2.17.93C1344.14,226.73,1343.44,231,1349.64,232.56Z"/></g></svg>